# xmcd CD database file
#
# Track frame offsets:
#	150
#	16342
#	34639
#	57979
#	79501
#	97054
#	116105
#	133956
#	154896
#	174295
#	196994
#
# Disc length: 2890 seconds
#
# Revision: 0
# Processed by: cddbd v1.5.2PL0 Copyright (c) Steve Scherf et al.
# Submitted via: CDex 1.70beta2
#
DISCID=8e0b480b
DTITLE=Meri Cetinic and Black Coffee - Tiramola
DYEAR=2006
DGENRE=Jazz
TTITLE0=Zauvijek ostavi me ti
TTITLE1=U samoci prolazi mi vrime
TTITLE2=Covjek kojeg volim
TTITLE3=Potrazi me u predgradju
TTITLE4=Sve sam cuvala za ljubav
TTITLE5=Sjena tvoga lica
TTITLE6=Nema puta
TTITLE7=Ja cu plakat' sama
TTITLE8=Mislim na tebe
TTITLE9=Probudi moju ljubav
TTITLE10=Cet'ri stadjuna
EXTD=YEAR: 2006
EXTT0=
EXTT1=
EXTT2=
EXTT3=
EXTT4=
EXTT5=
EXTT6=
EXTT7=
EXTT8=
EXTT9=
EXTT10=
PLAYORDER=
